<svg width="569" height="176" viewBox="0 0 569 176" fill="none" xmlns="http://www.w3.org/2000/svg">
<path d="M16 48C16 21.4903 37.4903 0 64 0H128C154.51 0 176 21.4903 176 48V112C176 138.51 154.51 160 128 160H64C37.4903 160 16 138.51 16 112V48Z" fill="black"/>
<path fill-rule="evenodd" clip-rule="evenodd" d="M128 6H64C40.804 6 22 24.804 22 48V112C22 135.196 40.804 154 64 154H128C151.196 154 170 135.196 170 112V48C170 24.804 151.196 6 128 6ZM64 0C37.4903 0 16 21.4903 16 48V112C16 138.51 37.4903 160 64 160H128C154.51 160 176 138.51 176 112V48C176 21.4903 154.51 0 128 0H64Z" fill="white"/>
<path d="M0 48C0 21.4903 21.4903 0 48 0H112C138.51 0 160 21.4903 160 48V112C160 138.51 138.51 160 112 160H48C21.4903 160 0 138.51 0 112V48Z" fill="white"/>
<path fill-rule="evenodd" clip-rule="evenodd" d="M112 6H48C24.804 6 6 24.804 6 48V112C6 135.196 24.804 154 48 154H112C135.196 154 154 135.196 154 112V48C154 24.804 135.196 6 112 6ZM48 0C21.4903 0 0 21.4903 0 48V112C0 138.51 21.4903 160 48 160H112C138.51 160 160 138.51 160 112V48C160 21.4903 138.51 0 112 0H48Z" fill="white"/>
<g filter="url(#filter0_d_1_132)">
<path d="M60.166 65.6084L62.406 69.1284L45.249 79.59L62.406 90.0761L59.969 93.5223L41.1875 81.7807V77.35L60.166 65.6084Z" fill="black"/>
<path d="M71.5238 100.144L67.7331 98.4453L88.7546 55.0977L92.4962 56.8946L71.5238 100.144Z" fill="black"/>
<path d="M100.113 65.6084L119.091 77.3253V81.7807L100.309 93.5223L97.8725 90.1007L115.029 79.59L97.8725 69.1284L100.113 65.6084Z" fill="black"/>
</g>
<path d="M103 160H119V176L111 168L103 176V160Z" fill="white"/>
<path d="M229.226 101.748C229.885 101.808 230.635 101.868 231.474 101.928C232.373 101.928 233.423 101.928 234.622 101.928C241.637 101.928 246.823 100.154 250.181 96.6057C253.599 93.0571 255.308 88.1553 255.308 81.9003C255.308 75.3445 253.689 70.3826 250.451 67.0145C247.213 63.6464 242.087 61.9624 235.072 61.9624C234.112 61.9624 233.123 61.9924 232.104 62.0526C231.084 62.0526 230.125 62.1127 229.226 62.233V101.748ZM269.788 81.9003C269.788 87.3133 268.948 92.0347 267.269 96.0644C265.59 100.094 263.192 103.432 260.074 106.078C257.016 108.725 253.269 110.71 248.832 112.033C244.395 113.356 239.419 114.018 233.902 114.018C231.384 114.018 228.446 113.897 225.088 113.657C221.731 113.476 218.433 113.055 215.195 112.394V51.4972C218.433 50.8958 221.791 50.5048 225.268 50.3244C228.806 50.0838 231.834 49.9635 234.352 49.9635C239.688 49.9635 244.515 50.565 248.832 51.7679C253.209 52.9708 256.956 54.8653 260.074 57.4515C263.192 60.0377 265.59 63.3457 267.269 67.3754C268.948 71.4051 269.788 76.2467 269.788 81.9003Z" fill="white"/>
<path d="M289.511 113.206H276.111V65.7515H289.511V113.206ZM290.77 52.0385C290.77 54.5044 289.961 56.4591 288.342 57.9026C286.783 59.2859 284.924 59.9776 282.766 59.9776C280.607 59.9776 278.719 59.2859 277.1 57.9026C275.541 56.4591 274.761 54.5044 274.761 52.0385C274.761 49.5726 275.541 47.648 277.1 46.2646C278.719 44.8212 280.607 44.0994 282.766 44.0994C284.924 44.0994 286.783 44.8212 288.342 46.2646C289.961 47.648 290.77 49.5726 290.77 52.0385Z" fill="white"/>
<path d="M295.363 89.4785C295.363 86.0503 295.902 82.8325 296.982 79.8253C298.121 76.7579 299.74 74.1116 301.838 71.8862C303.937 69.6007 306.485 67.7964 309.483 66.4732C312.481 65.15 315.899 64.4884 319.736 64.4884C322.254 64.4884 324.563 64.729 326.661 65.2102C328.76 65.6312 330.798 66.2627 332.777 67.1047L329.989 77.8405C328.73 77.3594 327.351 76.9384 325.852 76.5775C324.353 76.2166 322.674 76.0362 320.815 76.0362C316.858 76.0362 313.89 77.2692 311.911 79.7351C309.993 82.201 309.033 85.4488 309.033 89.4785C309.033 93.7488 309.933 97.0567 311.732 99.4024C313.59 101.748 316.798 102.921 321.355 102.921C322.974 102.921 324.713 102.77 326.571 102.47C328.43 102.169 330.139 101.688 331.698 101.026L333.586 112.033C332.027 112.694 330.079 113.266 327.74 113.747C325.402 114.228 322.824 114.469 320.006 114.469C315.689 114.469 311.971 113.837 308.854 112.574C305.736 111.251 303.157 109.477 301.119 107.251C299.14 105.026 297.671 102.41 296.712 99.4024C295.813 96.335 295.363 93.0271 295.363 89.4785Z" fill="white"/>
<path d="M351.484 113.206H338.083V65.7515H351.484V113.206ZM352.743 52.0385C352.743 54.5044 351.934 56.4591 350.315 57.9026C348.756 59.2859 346.897 59.9776 344.739 59.9776C342.58 59.9776 340.691 59.2859 339.073 57.9026C337.514 56.4591 336.734 54.5044 336.734 52.0385C336.734 49.5726 337.514 47.648 339.073 46.2646C340.691 44.8212 342.58 44.0994 344.739 44.0994C346.897 44.0994 348.756 44.8212 350.315 46.2646C351.934 47.648 352.743 49.5726 352.743 52.0385Z" fill="white"/>
<path d="M403.833 89.3883C403.833 93.1173 403.294 96.5455 402.214 99.673C401.135 102.74 399.576 105.387 397.538 107.612C395.499 109.777 393.041 111.461 390.163 112.664C387.345 113.867 384.167 114.469 380.629 114.469C377.152 114.469 373.974 113.867 371.096 112.664C368.278 111.461 365.85 109.777 363.811 107.612C361.772 105.387 360.184 102.74 359.044 99.673C357.905 96.5455 357.336 93.1173 357.336 89.3883C357.336 85.6593 357.905 82.2612 359.044 79.1938C360.244 76.1264 361.862 73.5101 363.901 71.3449C366 69.1797 368.458 67.4957 371.276 66.2928C374.154 65.0899 377.272 64.4884 380.629 64.4884C384.047 64.4884 387.165 65.0899 389.983 66.2928C392.861 67.4957 395.319 69.1797 397.358 71.3449C399.396 73.5101 400.985 76.1264 402.125 79.1938C403.264 82.2612 403.833 85.6593 403.833 89.3883ZM390.163 89.3883C390.163 85.2383 389.323 81.9905 387.645 79.6449C386.026 77.2391 383.687 76.0362 380.629 76.0362C377.572 76.0362 375.203 77.2391 373.524 79.6449C371.846 81.9905 371.006 85.2383 371.006 89.3883C371.006 93.5383 371.846 96.8462 373.524 99.3122C375.203 101.718 377.572 102.921 380.629 102.921C383.687 102.921 386.026 101.718 387.645 99.3122C389.323 96.8462 390.163 93.5383 390.163 89.3883Z" fill="white"/>
<path d="M418.441 66.2928H436.159V73.3297H418.441V94.9818C418.441 97.3274 418.621 99.2821 418.981 100.846C419.341 102.349 419.88 103.552 420.6 104.455C421.319 105.297 422.219 105.898 423.298 106.259C424.377 106.62 425.636 106.8 427.075 106.8C429.594 106.8 431.602 106.53 433.101 105.988C434.66 105.387 435.739 104.966 436.339 104.725L437.958 111.672C437.118 112.093 435.649 112.604 433.551 113.206C431.452 113.867 429.054 114.198 426.356 114.198C423.178 114.198 420.54 113.807 418.441 113.025C416.403 112.183 414.754 110.95 413.495 109.326C412.236 107.702 411.336 105.718 410.797 103.372C410.317 100.966 410.077 98.1995 410.077 95.072V53.2113L418.441 51.7679V66.2928Z" fill="white"/>
<path d="M438.819 89.8394C438.819 85.6894 439.419 82.0807 440.618 79.0134C441.817 75.8858 443.406 73.2996 445.385 71.2547C447.363 69.2098 449.642 67.6761 452.22 66.6537C454.798 65.6312 457.436 65.12 460.134 65.12C466.43 65.12 471.257 67.1047 474.614 71.0743C477.972 74.9837 479.651 80.9681 479.651 89.0274C479.651 89.3883 479.651 89.8695 479.651 90.4709C479.651 91.0122 479.621 91.5234 479.561 92.0046H447.543C447.903 96.8763 449.312 100.575 451.77 103.101C454.228 105.627 458.066 106.89 463.282 106.89C466.22 106.89 468.678 106.65 470.657 106.169C472.696 105.627 474.225 105.116 475.244 104.635L476.413 111.672C475.394 112.213 473.595 112.785 471.017 113.386C468.499 113.987 465.621 114.288 462.383 114.288C458.306 114.288 454.768 113.687 451.77 112.484C448.832 111.221 446.404 109.507 444.485 107.341C442.567 105.176 441.128 102.62 440.168 99.673C439.269 96.6658 438.819 93.3879 438.819 89.8394ZM470.927 85.2383C470.987 81.4492 470.028 78.3518 468.049 75.946C466.13 73.4801 463.462 72.2471 460.044 72.2471C458.126 72.2471 456.417 72.638 454.918 73.4199C453.479 74.1416 452.25 75.104 451.231 76.3069C450.211 77.5097 449.402 78.8931 448.802 80.4568C448.263 82.0206 447.903 83.6144 447.723 85.2383H470.927Z" fill="white"/>
<path d="M507.495 114.288C503.718 114.288 500.39 113.687 497.512 112.484C494.694 111.281 492.296 109.597 490.317 107.432C488.398 105.266 486.959 102.71 486 99.7632C485.041 96.756 484.561 93.4481 484.561 89.8394C484.561 86.2307 485.071 82.9228 486.09 79.9155C487.169 76.9083 488.668 74.3221 490.587 72.1569C492.505 69.9315 494.844 68.2174 497.602 67.0145C500.42 65.7515 503.538 65.12 506.955 65.12C509.054 65.12 511.152 65.3004 513.251 65.6613C515.35 66.0221 517.358 66.5935 519.277 67.3754L517.388 74.5025C516.129 73.9011 514.66 73.4199 512.981 73.059C511.362 72.6982 509.624 72.5177 507.765 72.5177C503.088 72.5177 499.491 73.9913 496.972 76.9384C494.514 79.8855 493.285 84.1858 493.285 89.8394C493.285 92.3655 493.555 94.681 494.094 96.7861C494.694 98.8911 495.593 100.695 496.792 102.199C498.052 103.703 499.64 104.876 501.559 105.718C503.478 106.499 505.816 106.89 508.574 106.89C510.793 106.89 512.801 106.68 514.6 106.259C516.399 105.838 517.808 105.387 518.827 104.906L519.996 111.943C519.517 112.243 518.827 112.544 517.928 112.845C517.028 113.085 516.009 113.296 514.87 113.476C513.731 113.717 512.502 113.897 511.182 114.018C509.923 114.198 508.694 114.288 507.495 114.288Z" fill="white"/>
<path d="M524.479 113.206V44.6407L532.843 43.1973V67.195C534.402 66.5935 536.051 66.1424 537.79 65.8417C539.589 65.4808 541.357 65.3004 543.096 65.3004C546.814 65.3004 549.902 65.8417 552.36 66.9243C554.818 67.9468 556.767 69.4203 558.206 71.3449C559.705 73.2094 560.754 75.4648 561.354 78.1112C561.953 80.7576 562.253 83.6746 562.253 86.8622V113.206H553.889V88.6666C553.889 85.7796 553.679 83.3137 553.259 81.2688C552.899 79.2239 552.27 77.5699 551.371 76.3069C550.471 75.0438 549.272 74.1417 547.773 73.6004C546.274 72.9989 544.415 72.6982 542.197 72.6982C541.298 72.6982 540.368 72.7583 539.409 72.8786C538.449 72.9989 537.52 73.1493 536.621 73.3297C535.781 73.45 535.002 73.6004 534.282 73.7808C533.623 73.9612 533.143 74.1116 532.843 74.2319V113.206H524.479Z" fill="white"/>
<defs>
<filter id="filter0_d_1_132" x="41.1875" y="55.0977" width="78.9062" height="46.0469" filterUnits="userSpaceOnUse" color-interpolation-filters="sRGB">
<feFlood flood-opacity="0" result="BackgroundImageFix"/>
<feColorMatrix in="SourceAlpha" type="matrix" values="0 0 0 0 0 0 0 0 0 0 0 0 0 0 0 0 0 0 127 0" result="hardAlpha"/>
<feOffset dx="1" dy="1"/>
<feComposite in2="hardAlpha" operator="out"/>
<feColorMatrix type="matrix" values="0 0 0 0 0 0 0 0 0 0 0 0 0 0 0 0 0 0 0.1 0"/>
<feBlend mode="normal" in2="BackgroundImageFix" result="effect1_dropShadow_1_132"/>
<feBlend mode="normal" in="SourceGraphic" in2="effect1_dropShadow_1_132" result="shape"/>
</filter>
</defs>
</svg>
