<svg width="289" height="83" viewBox="0 0 289 83" fill="none" xmlns="http://www.w3.org/2000/svg">
<path d="M16.9898 58.8569C17.5178 58.9049 18.1178 58.9529 18.7898 59.0009C19.5098 59.0009 20.3498 59.0009 21.3098 59.0009C26.9258 59.0009 31.0778 57.5849 33.7658 54.7529C36.5018 51.9209 37.8698 48.0089 37.8698 43.0169C37.8698 37.7849 36.5738 33.8249 33.9818 31.1369C31.3898 28.4489 27.2858 27.1049 21.6698 27.1049C20.9018 27.1049 20.1098 27.1289 19.2938 27.1769C18.4778 27.1769 17.7098 27.2249 16.9898 27.3209V58.8569ZM49.4618 43.0169C49.4618 47.3369 48.7898 51.1049 47.4458 54.3209C46.1018 57.5369 44.1818 60.2009 41.6858 62.3129C39.2378 64.4249 36.2378 66.0089 32.6858 67.0649C29.1338 68.1209 25.1498 68.6489 20.7338 68.6489C18.7178 68.6489 16.3658 68.5529 13.6778 68.3609C10.9898 68.2169 8.34981 67.8809 5.75781 67.3529V18.7529C8.34981 18.2729 11.0378 17.9609 13.8218 17.8169C16.6538 17.6249 19.0778 17.5289 21.0938 17.5289C25.3658 17.5289 29.2298 18.0089 32.6858 18.9689C36.1898 19.9289 39.1898 21.4409 41.6858 23.5049C44.1818 25.5689 46.1018 28.2089 47.4458 31.4249C48.7898 34.6409 49.4618 38.5049 49.4618 43.0169Z" fill="white"/>
<path d="M65.2517 68.0009H54.5238V30.1289H65.2517V68.0009ZM66.2598 19.1849C66.2598 21.1529 65.6117 22.7129 64.3158 23.8649C63.0677 24.9689 61.5798 25.5209 59.8518 25.5209C58.1238 25.5209 56.6118 24.9689 55.3158 23.8649C54.0678 22.7129 53.4437 21.1529 53.4437 19.1849C53.4437 17.2169 54.0678 15.6809 55.3158 14.5769C56.6118 13.4249 58.1238 12.8489 59.8518 12.8489C61.5798 12.8489 63.0677 13.4249 64.3158 14.5769C65.6117 15.6809 66.2598 17.2169 66.2598 19.1849Z" fill="white"/>
<path d="M69.9362 49.0649C69.9362 46.3289 70.3683 43.7609 71.2323 41.3609C72.1443 38.9129 73.4403 36.8009 75.1203 35.0249C76.8003 33.2009 78.8402 31.7609 81.2402 30.7049C83.6402 29.6489 86.3762 29.1209 89.4482 29.1209C91.4642 29.1209 93.3122 29.3129 94.9922 29.6969C96.6722 30.0329 98.3043 30.5369 99.8883 31.2089L97.6562 39.7769C96.6483 39.3929 95.5443 39.0569 94.3443 38.7689C93.1443 38.4809 91.8002 38.3369 90.3122 38.3369C87.1442 38.3369 84.7683 39.3209 83.1842 41.2889C81.6482 43.2569 80.8802 45.8489 80.8802 49.0649C80.8802 52.4729 81.6003 55.1129 83.0403 56.9849C84.5283 58.8569 87.0963 59.7929 90.7443 59.7929C92.0403 59.7929 93.4323 59.6729 94.9202 59.4329C96.4082 59.1929 97.7763 58.8089 99.0243 58.2809L100.536 67.0649C99.2883 67.5929 97.7283 68.0489 95.8563 68.4329C93.9843 68.8169 91.9203 69.0089 89.6643 69.0089C86.2083 69.0089 83.2323 68.5049 80.7363 67.4969C78.2403 66.4409 76.1763 65.0249 74.5443 63.2489C72.9603 61.4729 71.7843 59.3849 71.0163 56.9849C70.2963 54.5369 69.9362 51.8969 69.9362 49.0649Z" fill="white"/>
<path d="M114.864 68.0009H104.136V30.1289H114.864V68.0009ZM115.872 19.1849C115.872 21.1529 115.224 22.7129 113.928 23.8649C112.68 24.9689 111.192 25.5209 109.464 25.5209C107.736 25.5209 106.224 24.9689 104.928 23.8649C103.68 22.7129 103.056 21.1529 103.056 19.1849C103.056 17.2169 103.68 15.6809 104.928 14.5769C106.224 13.4249 107.736 12.8489 109.464 12.8489C111.192 12.8489 112.68 13.4249 113.928 14.5769C115.224 15.6809 115.872 17.2169 115.872 19.1849Z" fill="white"/>
<path d="M156.773 48.9929C156.773 51.9689 156.341 54.7049 155.477 57.2009C154.613 59.6489 153.365 61.7609 151.733 63.5369C150.101 65.2649 148.133 66.6089 145.829 67.5689C143.573 68.5289 141.029 69.0089 138.197 69.0089C135.413 69.0089 132.869 68.5289 130.565 67.5689C128.309 66.6089 126.365 65.2649 124.733 63.5369C123.101 61.7609 121.829 59.6489 120.917 57.2009C120.005 54.7049 119.549 51.9689 119.549 48.9929C119.549 46.0169 120.005 43.3049 120.917 40.8569C121.877 38.4089 123.173 36.3209 124.805 34.5929C126.485 32.8649 128.453 31.5209 130.709 30.5609C133.013 29.6009 135.509 29.1209 138.197 29.1209C140.933 29.1209 143.429 29.6009 145.685 30.5609C147.989 31.5209 149.957 32.8649 151.589 34.5929C153.221 36.3209 154.493 38.4089 155.405 40.8569C156.317 43.3049 156.773 46.0169 156.773 48.9929ZM145.829 48.9929C145.829 45.6809 145.157 43.0889 143.813 41.2169C142.517 39.2969 140.645 38.3369 138.197 38.3369C135.749 38.3369 133.853 39.2969 132.509 41.2169C131.165 43.0889 130.493 45.6809 130.493 48.9929C130.493 52.3049 131.165 54.9449 132.509 56.9129C133.853 58.8329 135.749 59.7929 138.197 59.7929C140.645 59.7929 142.517 58.8329 143.813 56.9129C145.157 54.9449 145.829 52.3049 145.829 48.9929Z" fill="white"/>
<path d="M168.467 30.5609H182.651V36.1769H168.467V53.4569C168.467 55.3289 168.611 56.8889 168.899 58.1369C169.187 59.3369 169.619 60.2969 170.195 61.0169C170.771 61.6889 171.491 62.1689 172.355 62.4569C173.219 62.7449 174.227 62.8889 175.379 62.8889C177.395 62.8889 179.003 62.6729 180.203 62.2409C181.451 61.7609 182.315 61.4249 182.795 61.2329L184.091 66.7769C183.419 67.1129 182.243 67.5209 180.563 68.0009C178.883 68.5289 176.963 68.7929 174.803 68.7929C172.259 68.7929 170.147 68.4809 168.467 67.8569C166.835 67.1849 165.515 66.2009 164.507 64.9049C163.499 63.6089 162.779 62.0249 162.347 60.1529C161.963 58.2329 161.771 56.0249 161.771 53.5289V20.1209L168.467 18.9689V30.5609Z" fill="white"/>
<path d="M184.781 49.3529C184.781 46.0409 185.261 43.1609 186.221 40.7129C187.181 38.2169 188.453 36.1529 190.037 34.5209C191.621 32.8889 193.445 31.6649 195.509 30.8489C197.573 30.0329 199.685 29.6249 201.845 29.6249C206.885 29.6249 210.749 31.2089 213.437 34.3769C216.125 37.4969 217.469 42.2729 217.469 48.7049C217.469 48.9929 217.469 49.3769 217.469 49.8569C217.469 50.2889 217.445 50.6969 217.397 51.0809H191.765C192.053 54.9689 193.181 57.9209 195.149 59.9369C197.117 61.9529 200.189 62.9609 204.365 62.9609C206.717 62.9609 208.685 62.7689 210.269 62.3849C211.901 61.9529 213.125 61.5449 213.941 61.1609L214.877 66.7769C214.061 67.2089 212.621 67.6649 210.557 68.1449C208.541 68.6249 206.237 68.8649 203.645 68.8649C200.381 68.8649 197.549 68.3849 195.149 67.4249C192.797 66.4169 190.853 65.0489 189.317 63.3209C187.781 61.5929 186.629 59.5529 185.861 57.2009C185.141 54.8009 184.781 52.1849 184.781 49.3529ZM210.485 45.6809C210.533 42.6569 209.765 40.1849 208.181 38.2649C206.645 36.2969 204.509 35.3129 201.773 35.3129C200.237 35.3129 198.869 35.6249 197.669 36.2489C196.517 36.8249 195.533 37.5929 194.717 38.5529C193.901 39.5129 193.253 40.6169 192.773 41.8649C192.341 43.1129 192.053 44.3849 191.909 45.6809H210.485Z" fill="white"/>
<path d="M239.76 68.8649C236.736 68.8649 234.072 68.3849 231.768 67.4249C229.512 66.4649 227.592 65.1209 226.008 63.3929C224.472 61.6649 223.32 59.6249 222.552 57.2729C221.784 54.8729 221.4 52.2329 221.4 49.3529C221.4 46.4729 221.808 43.8329 222.624 41.4329C223.488 39.0329 224.688 36.9689 226.224 35.2409C227.76 33.4649 229.632 32.0969 231.84 31.1369C234.096 30.1289 236.592 29.6249 239.328 29.6249C241.008 29.6249 242.688 29.7689 244.368 30.0569C246.048 30.3449 247.656 30.8009 249.192 31.4249L247.68 37.1129C246.672 36.6329 245.496 36.2489 244.152 35.9609C242.856 35.6729 241.464 35.5289 239.976 35.5289C236.232 35.5289 233.352 36.7049 231.336 39.0569C229.368 41.4089 228.384 44.8409 228.384 49.3529C228.384 51.3689 228.6 53.2169 229.032 54.8969C229.512 56.5769 230.232 58.0169 231.192 59.2169C232.2 60.4169 233.472 61.3529 235.008 62.0249C236.544 62.6489 238.416 62.9609 240.624 62.9609C242.4 62.9609 244.008 62.7929 245.448 62.4569C246.888 62.1209 248.016 61.7609 248.832 61.3769L249.768 66.9929C249.384 67.2329 248.832 67.4729 248.112 67.7129C247.392 67.9049 246.576 68.0729 245.664 68.2169C244.752 68.4089 243.768 68.5529 242.712 68.6489C241.704 68.7929 240.72 68.8649 239.76 68.8649Z" fill="white"/>
<path d="M253.356 68.0009V13.2809L260.052 12.1289V31.2809C261.3 30.8009 262.62 30.4409 264.012 30.2009C265.452 29.9129 266.868 29.7689 268.26 29.7689C271.236 29.7689 273.708 30.2009 275.676 31.0649C277.644 31.8809 279.204 33.0569 280.356 34.5929C281.556 36.0809 282.396 37.8809 282.876 39.9929C283.356 42.1049 283.596 44.4329 283.596 46.9769V68.0009H276.9V48.4169C276.9 46.1129 276.732 44.1449 276.396 42.5129C276.108 40.8809 275.604 39.5609 274.884 38.5529C274.164 37.5449 273.204 36.8249 272.004 36.3929C270.804 35.9129 269.316 35.6729 267.54 35.6729C266.82 35.6729 266.076 35.7209 265.308 35.8169C264.54 35.9129 263.796 36.0329 263.076 36.1769C262.404 36.2729 261.78 36.3929 261.204 36.5369C260.676 36.6809 260.292 36.8009 260.052 36.8969V68.0009H253.356Z" fill="white"/>
</svg>
